# xmcd CD database file
#
# Track frame offsets:
#	225
#	17493
#	41180
#	58423
#	73460
#	96040
#	111774
#	129483
#	147698
#	169101
#	190666
#	214747
#	229187
#	250085
#
# Disc length: 3580 seconds
#
# Revision: 0
# Processed by: cddbd v1.5PL3 Copyright (c) Steve Scherf et al.
# Submitted via: CDex 1.50beta10
#
DISCID=d50df90e
DTITLE=Fieldstones - Memphis Blues Today
DYEAR=1997
DGENRE=Blues
TTITLE0=The Fieldstones
TTITLE1=Dirt Road
TTITLE2=I'm In Trouble
TTITLE3=Just One More Time
TTITLE4=Angel Of Mercy
TTITLE5=The Thing
TTITLE6=Please Don't Put Me Outdoors
TTITLE7=Looking For A Fox
TTITLE8=Saddle Up My Pony
TTITLE9=Short Haired Woman
TTITLE10=Little Bluebird
TTITLE11=Sweethome Chicago
TTITLE12=The Squeeze
TTITLE13=Blues At Nightfall
EXTD=YEAR: 1997
EXTT0=
EXTT1=
EXTT2=
EXTT3=
EXTT4=
EXTT5=
EXTT6=
EXTT7=
EXTT8=
EXTT9=
EXTT10=
EXTT11=
EXTT12=
EXTT13=
PLAYORDER=
